<?xml version="1.0" standalone="no"?>
<!DOCTYPE svg PUBLIC "-//W3C//DTD SVG 20010904//EN"
 "http://www.w3.org/TR/2001/REC-SVG-20010904/DTD/svg10.dtd">
<svg version="1.0" xmlns="http://www.w3.org/2000/svg"
 width="147.000000pt" height="147.000000pt" viewBox="0 0 147.000000 147.000000"
 preserveAspectRatio="xMidYMid meet">
<metadata>
Created by potrace 1.11, written by Peter Selinger 2001-2013
</metadata>
<g transform="translate(0.000000,147.000000) scale(0.100000,-0.100000)"
fill="#000000" stroke="none">
<path d="M710 1436 c-5 -15 -10 -47 -10 -71 l0 -44 -92 -47 c-176 -92 -319
-228 -396 -380 -65 -128 -86 -347 -45 -479 25 -81 81 -177 136 -236 49 -52
158 -104 249 -119 172 -29 303 14 421 139 84 90 102 140 102 291 0 120 -16
168 -79 238 -55 61 -126 86 -229 80 -162 -9 -239 -85 -239 -239 0 -73 14 -109
59 -151 37 -35 73 -48 136 -48 110 1 177 61 177 159 0 58 -18 102 -52 125 -31
22 -91 20 -111 -2 -25 -28 -21 -42 13 -42 76 0 114 -52 85 -115 -22 -44 -60
-65 -119 -65 -82 0 -147 83 -131 168 19 109 125 176 241 152 178 -37 253 -253
152 -442 -80 -151 -245 -222 -424 -185 -126 27 -197 76 -272 188 -62 92 -76
142 -77 269 0 129 17 196 83 325 70 135 258 292 426 355 l41 15 3 63 3 62 46
0 c47 0 119 -17 140 -32 8 -6 -2 -21 -32 -49 -48 -45 -65 -83 -67 -151 -2
-121 103 -216 218 -197 27 4 54 8 61 8 26 2 82 64 104 116 12 30 26 55 29 55
10 0 41 -85 47 -129 4 -32 1 -41 -22 -59 -68 -54 -257 -73 -365 -37 -70 23
-105 48 -136 96 -30 48 -64 54 -64 11 0 -63 104 -151 204 -172 61 -13 213 -14
279 -2 54 11 119 50 143 87 22 33 14 127 -17 211 -59 157 -274 279 -530 300
l-78 7 -11 -27z m370 -127 c13 -9 13 -12 -4 -22 -50 -33 -66 -51 -76 -88 -14
-52 9 -104 63 -138 46 -30 36 -46 -27 -45 -54 1 -99 32 -126 84 -25 49 -25 81
0 130 36 70 124 111 170 79z m66 -61 c4 -6 0 -16 -8 -22 -38 -28 -43 -90 -9
-111 22 -13 11 -35 -16 -35 -47 1 -83 42 -83 95 0 53 93 111 116 73z m44 -64
c11 -12 10 -18 -3 -32 -16 -15 -18 -15 -34 0 -13 14 -14 20 -3 32 7 9 16 16
20 16 4 0 13 -7 20 -16z"/>
</g>
</svg>
